<mxfile host="app.diagrams.net" agent="Mozilla/5.0 (X11; Linux x86_64) AppleWebKit/537.36 (KHTML, like Gecko) Chrome/134.0.0.0 Safari/537.36" version="26.1.1">
  <diagram name="Страница — 1" id="Ns6V6-b36WGrRCcwKtfp">
    <mxGraphModel dx="2261" dy="2043" grid="1" gridSize="10" guides="1" tooltips="1" connect="1" arrows="1" fold="1" page="1" pageScale="1" pageWidth="827" pageHeight="1169" math="0" shadow="0">
      <root>
        <mxCell id="0" />
        <mxCell id="1" parent="0" />
        <mxCell id="1xwBwhVuU44Af1zx4qzp-1" value="Грузы" style="swimlane;fontStyle=0;childLayout=stackLayout;horizontal=1;startSize=26;fillColor=none;horizontalStack=0;resizeParent=1;resizeParentMax=0;resizeLast=0;collapsible=1;marginBottom=0;whiteSpace=wrap;html=1;" vertex="1" parent="1">
          <mxGeometry x="-150" y="200" width="140" height="163" as="geometry" />
        </mxCell>
        <mxCell id="1xwBwhVuU44Af1zx4qzp-2" value="ID INT" style="text;strokeColor=none;fillColor=none;align=left;verticalAlign=top;spacingLeft=4;spacingRight=4;overflow=hidden;rotatable=0;points=[[0,0.5],[1,0.5]];portConstraint=eastwest;whiteSpace=wrap;html=1;" vertex="1" parent="1xwBwhVuU44Af1zx4qzp-1">
          <mxGeometry y="26" width="140" height="26" as="geometry" />
        </mxCell>
        <mxCell id="1xwBwhVuU44Af1zx4qzp-3" value="Описание TEXT" style="text;strokeColor=none;fillColor=none;align=left;verticalAlign=top;spacingLeft=4;spacingRight=4;overflow=hidden;rotatable=0;points=[[0,0.5],[1,0.5]];portConstraint=eastwest;whiteSpace=wrap;html=1;" vertex="1" parent="1xwBwhVuU44Af1zx4qzp-1">
          <mxGeometry y="52" width="140" height="26" as="geometry" />
        </mxCell>
        <mxCell id="1xwBwhVuU44Af1zx4qzp-4" value="Категория VARCHAR&lt;div&gt;&lt;br&gt;&lt;/div&gt;" style="text;strokeColor=none;fillColor=none;align=left;verticalAlign=top;spacingLeft=4;spacingRight=4;overflow=hidden;rotatable=0;points=[[0,0.5],[1,0.5]];portConstraint=eastwest;whiteSpace=wrap;html=1;" vertex="1" parent="1xwBwhVuU44Af1zx4qzp-1">
          <mxGeometry y="78" width="140" height="33" as="geometry" />
        </mxCell>
        <mxCell id="1xwBwhVuU44Af1zx4qzp-26" value="Вес DECIMAL(10,2)" style="text;strokeColor=none;fillColor=none;align=left;verticalAlign=top;spacingLeft=4;spacingRight=4;overflow=hidden;rotatable=0;points=[[0,0.5],[1,0.5]];portConstraint=eastwest;whiteSpace=wrap;html=1;" vertex="1" parent="1xwBwhVuU44Af1zx4qzp-1">
          <mxGeometry y="111" width="140" height="26" as="geometry" />
        </mxCell>
        <mxCell id="1xwBwhVuU44Af1zx4qzp-27" value="Условия_хранения&lt;div&gt;&lt;br&gt;&lt;/div&gt;" style="text;strokeColor=none;fillColor=none;align=left;verticalAlign=top;spacingLeft=4;spacingRight=4;overflow=hidden;rotatable=0;points=[[0,0.5],[1,0.5]];portConstraint=eastwest;whiteSpace=wrap;html=1;" vertex="1" parent="1xwBwhVuU44Af1zx4qzp-1">
          <mxGeometry y="137" width="140" height="26" as="geometry" />
        </mxCell>
        <mxCell id="1xwBwhVuU44Af1zx4qzp-5" value="Назначения экипажа на транспорт&amp;nbsp;" style="swimlane;fontStyle=0;childLayout=stackLayout;horizontal=1;startSize=26;fillColor=none;horizontalStack=0;resizeParent=1;resizeParentMax=0;resizeLast=0;collapsible=1;marginBottom=0;whiteSpace=wrap;html=1;" vertex="1" parent="1">
          <mxGeometry x="450" y="-80" width="140" height="154" as="geometry" />
        </mxCell>
        <mxCell id="1xwBwhVuU44Af1zx4qzp-6" value="ID INT" style="text;strokeColor=none;fillColor=none;align=left;verticalAlign=top;spacingLeft=4;spacingRight=4;overflow=hidden;rotatable=0;points=[[0,0.5],[1,0.5]];portConstraint=eastwest;whiteSpace=wrap;html=1;" vertex="1" parent="1xwBwhVuU44Af1zx4qzp-5">
          <mxGeometry y="26" width="140" height="26" as="geometry" />
        </mxCell>
        <mxCell id="1xwBwhVuU44Af1zx4qzp-7" value="ID_экипажа INT" style="text;strokeColor=none;fillColor=none;align=left;verticalAlign=top;spacingLeft=4;spacingRight=4;overflow=hidden;rotatable=0;points=[[0,0.5],[1,0.5]];portConstraint=eastwest;whiteSpace=wrap;html=1;" vertex="1" parent="1xwBwhVuU44Af1zx4qzp-5">
          <mxGeometry y="52" width="140" height="26" as="geometry" />
        </mxCell>
        <mxCell id="1xwBwhVuU44Af1zx4qzp-8" value="ID_транспорта INT" style="text;strokeColor=none;fillColor=none;align=left;verticalAlign=top;spacingLeft=4;spacingRight=4;overflow=hidden;rotatable=0;points=[[0,0.5],[1,0.5]];portConstraint=eastwest;whiteSpace=wrap;html=1;" vertex="1" parent="1xwBwhVuU44Af1zx4qzp-5">
          <mxGeometry y="78" width="140" height="26" as="geometry" />
        </mxCell>
        <mxCell id="1xwBwhVuU44Af1zx4qzp-56" value="ID_обслуживающий персонал&lt;div&gt;INT&lt;/div&gt;" style="text;strokeColor=none;fillColor=none;align=left;verticalAlign=top;spacingLeft=4;spacingRight=4;overflow=hidden;rotatable=0;points=[[0,0.5],[1,0.5]];portConstraint=eastwest;whiteSpace=wrap;html=1;" vertex="1" parent="1xwBwhVuU44Af1zx4qzp-5">
          <mxGeometry y="104" width="140" height="50" as="geometry" />
        </mxCell>
        <mxCell id="1xwBwhVuU44Af1zx4qzp-9" value="Маршрут" style="swimlane;fontStyle=0;childLayout=stackLayout;horizontal=1;startSize=26;fillColor=none;horizontalStack=0;resizeParent=1;resizeParentMax=0;resizeLast=0;collapsible=1;marginBottom=0;whiteSpace=wrap;html=1;" vertex="1" parent="1">
          <mxGeometry x="344" y="150" width="140" height="170" as="geometry" />
        </mxCell>
        <mxCell id="1xwBwhVuU44Af1zx4qzp-10" value="ID INT" style="text;strokeColor=none;fillColor=none;align=left;verticalAlign=top;spacingLeft=4;spacingRight=4;overflow=hidden;rotatable=0;points=[[0,0.5],[1,0.5]];portConstraint=eastwest;whiteSpace=wrap;html=1;" vertex="1" parent="1xwBwhVuU44Af1zx4qzp-9">
          <mxGeometry y="26" width="140" height="26" as="geometry" />
        </mxCell>
        <mxCell id="1xwBwhVuU44Af1zx4qzp-11" value="Начальный_узел NVARCHAR" style="text;strokeColor=none;fillColor=none;align=left;verticalAlign=top;spacingLeft=4;spacingRight=4;overflow=hidden;rotatable=0;points=[[0,0.5],[1,0.5]];portConstraint=eastwest;whiteSpace=wrap;html=1;" vertex="1" parent="1xwBwhVuU44Af1zx4qzp-9">
          <mxGeometry y="52" width="140" height="41" as="geometry" />
        </mxCell>
        <mxCell id="1xwBwhVuU44Af1zx4qzp-12" value="Конечный_узел NVARCHAR" style="text;strokeColor=none;fillColor=none;align=left;verticalAlign=top;spacingLeft=4;spacingRight=4;overflow=hidden;rotatable=0;points=[[0,0.5],[1,0.5]];portConstraint=eastwest;whiteSpace=wrap;html=1;" vertex="1" parent="1xwBwhVuU44Af1zx4qzp-9">
          <mxGeometry y="93" width="140" height="39" as="geometry" />
        </mxCell>
        <mxCell id="1xwBwhVuU44Af1zx4qzp-29" value="Уровень_риска VARCHAR" style="text;strokeColor=none;fillColor=none;align=left;verticalAlign=top;spacingLeft=4;spacingRight=4;overflow=hidden;rotatable=0;points=[[0,0.5],[1,0.5]];portConstraint=eastwest;whiteSpace=wrap;html=1;" vertex="1" parent="1xwBwhVuU44Af1zx4qzp-9">
          <mxGeometry y="132" width="140" height="38" as="geometry" />
        </mxCell>
        <mxCell id="1xwBwhVuU44Af1zx4qzp-14" value="Транспорт" style="swimlane;fontStyle=0;childLayout=stackLayout;horizontal=1;startSize=26;fillColor=none;horizontalStack=0;resizeParent=1;resizeParentMax=0;resizeLast=0;collapsible=1;marginBottom=0;whiteSpace=wrap;html=1;" vertex="1" parent="1">
          <mxGeometry x="670" y="-30" width="140" height="167" as="geometry" />
        </mxCell>
        <mxCell id="1xwBwhVuU44Af1zx4qzp-15" value="ID INT" style="text;strokeColor=none;fillColor=none;align=left;verticalAlign=top;spacingLeft=4;spacingRight=4;overflow=hidden;rotatable=0;points=[[0,0.5],[1,0.5]];portConstraint=eastwest;whiteSpace=wrap;html=1;" vertex="1" parent="1xwBwhVuU44Af1zx4qzp-14">
          <mxGeometry y="26" width="140" height="26" as="geometry" />
        </mxCell>
        <mxCell id="1xwBwhVuU44Af1zx4qzp-16" value="Марка NVARCHAR" style="text;strokeColor=none;fillColor=none;align=left;verticalAlign=top;spacingLeft=4;spacingRight=4;overflow=hidden;rotatable=0;points=[[0,0.5],[1,0.5]];portConstraint=eastwest;whiteSpace=wrap;html=1;" vertex="1" parent="1xwBwhVuU44Af1zx4qzp-14">
          <mxGeometry y="52" width="140" height="26" as="geometry" />
        </mxCell>
        <mxCell id="1xwBwhVuU44Af1zx4qzp-49" value="Тип VARCHAR" style="text;strokeColor=none;fillColor=none;align=left;verticalAlign=top;spacingLeft=4;spacingRight=4;overflow=hidden;rotatable=0;points=[[0,0.5],[1,0.5]];portConstraint=eastwest;whiteSpace=wrap;html=1;" vertex="1" parent="1xwBwhVuU44Af1zx4qzp-14">
          <mxGeometry y="78" width="140" height="26" as="geometry" />
        </mxCell>
        <mxCell id="1xwBwhVuU44Af1zx4qzp-50" value="Грузоподъемность DEACIMAL(10,2)" style="text;strokeColor=none;fillColor=none;align=left;verticalAlign=top;spacingLeft=4;spacingRight=4;overflow=hidden;rotatable=0;points=[[0,0.5],[1,0.5]];portConstraint=eastwest;whiteSpace=wrap;html=1;" vertex="1" parent="1xwBwhVuU44Af1zx4qzp-14">
          <mxGeometry y="104" width="140" height="37" as="geometry" />
        </mxCell>
        <mxCell id="1xwBwhVuU44Af1zx4qzp-17" value="Статус VARCHAR" style="text;strokeColor=none;fillColor=none;align=left;verticalAlign=top;spacingLeft=4;spacingRight=4;overflow=hidden;rotatable=0;points=[[0,0.5],[1,0.5]];portConstraint=eastwest;whiteSpace=wrap;html=1;" vertex="1" parent="1xwBwhVuU44Af1zx4qzp-14">
          <mxGeometry y="141" width="140" height="26" as="geometry" />
        </mxCell>
        <mxCell id="1xwBwhVuU44Af1zx4qzp-18" value="Экипаж" style="swimlane;fontStyle=0;childLayout=stackLayout;horizontal=1;startSize=26;fillColor=none;horizontalStack=0;resizeParent=1;resizeParentMax=0;resizeLast=0;collapsible=1;marginBottom=0;whiteSpace=wrap;html=1;" vertex="1" parent="1">
          <mxGeometry x="670" y="-250" width="140" height="154" as="geometry" />
        </mxCell>
        <mxCell id="1xwBwhVuU44Af1zx4qzp-19" value="ID INT" style="text;strokeColor=none;fillColor=none;align=left;verticalAlign=top;spacingLeft=4;spacingRight=4;overflow=hidden;rotatable=0;points=[[0,0.5],[1,0.5]];portConstraint=eastwest;whiteSpace=wrap;html=1;" vertex="1" parent="1xwBwhVuU44Af1zx4qzp-18">
          <mxGeometry y="26" width="140" height="26" as="geometry" />
        </mxCell>
        <mxCell id="1xwBwhVuU44Af1zx4qzp-20" value="Уровень_квал. VARCHAR" style="text;strokeColor=none;fillColor=none;align=left;verticalAlign=top;spacingLeft=4;spacingRight=4;overflow=hidden;rotatable=0;points=[[0,0.5],[1,0.5]];portConstraint=eastwest;whiteSpace=wrap;html=1;" vertex="1" parent="1xwBwhVuU44Af1zx4qzp-18">
          <mxGeometry y="52" width="140" height="38" as="geometry" />
        </mxCell>
        <mxCell id="1xwBwhVuU44Af1zx4qzp-32" value="Имя VARCHAR" style="text;strokeColor=none;fillColor=none;align=left;verticalAlign=top;spacingLeft=4;spacingRight=4;overflow=hidden;rotatable=0;points=[[0,0.5],[1,0.5]];portConstraint=eastwest;whiteSpace=wrap;html=1;" vertex="1" parent="1xwBwhVuU44Af1zx4qzp-18">
          <mxGeometry y="90" width="140" height="26" as="geometry" />
        </mxCell>
        <mxCell id="1xwBwhVuU44Af1zx4qzp-30" value="Специализация VARCHAR" style="text;strokeColor=none;fillColor=none;align=left;verticalAlign=top;spacingLeft=4;spacingRight=4;overflow=hidden;rotatable=0;points=[[0,0.5],[1,0.5]];portConstraint=eastwest;whiteSpace=wrap;html=1;" vertex="1" parent="1xwBwhVuU44Af1zx4qzp-18">
          <mxGeometry y="116" width="140" height="38" as="geometry" />
        </mxCell>
        <mxCell id="1xwBwhVuU44Af1zx4qzp-33" value="Обслуживающий персонал" style="swimlane;fontStyle=0;childLayout=stackLayout;horizontal=1;startSize=26;fillColor=none;horizontalStack=0;resizeParent=1;resizeParentMax=0;resizeLast=0;collapsible=1;marginBottom=0;whiteSpace=wrap;html=1;" vertex="1" parent="1">
          <mxGeometry x="600" y="290" width="140" height="150" as="geometry" />
        </mxCell>
        <mxCell id="1xwBwhVuU44Af1zx4qzp-34" value="ID INT" style="text;strokeColor=none;fillColor=none;align=left;verticalAlign=top;spacingLeft=4;spacingRight=4;overflow=hidden;rotatable=0;points=[[0,0.5],[1,0.5]];portConstraint=eastwest;whiteSpace=wrap;html=1;" vertex="1" parent="1xwBwhVuU44Af1zx4qzp-33">
          <mxGeometry y="26" width="140" height="26" as="geometry" />
        </mxCell>
        <mxCell id="1xwBwhVuU44Af1zx4qzp-35" value="Уровень_квал. VARCHAR" style="text;strokeColor=none;fillColor=none;align=left;verticalAlign=top;spacingLeft=4;spacingRight=4;overflow=hidden;rotatable=0;points=[[0,0.5],[1,0.5]];portConstraint=eastwest;whiteSpace=wrap;html=1;" vertex="1" parent="1xwBwhVuU44Af1zx4qzp-33">
          <mxGeometry y="52" width="140" height="36" as="geometry" />
        </mxCell>
        <mxCell id="1xwBwhVuU44Af1zx4qzp-36" value="Имя VARCHAR" style="text;strokeColor=none;fillColor=none;align=left;verticalAlign=top;spacingLeft=4;spacingRight=4;overflow=hidden;rotatable=0;points=[[0,0.5],[1,0.5]];portConstraint=eastwest;whiteSpace=wrap;html=1;" vertex="1" parent="1xwBwhVuU44Af1zx4qzp-33">
          <mxGeometry y="88" width="140" height="26" as="geometry" />
        </mxCell>
        <mxCell id="1xwBwhVuU44Af1zx4qzp-37" value="Специализация VARCHAR" style="text;strokeColor=none;fillColor=none;align=left;verticalAlign=top;spacingLeft=4;spacingRight=4;overflow=hidden;rotatable=0;points=[[0,0.5],[1,0.5]];portConstraint=eastwest;whiteSpace=wrap;html=1;" vertex="1" parent="1xwBwhVuU44Af1zx4qzp-33">
          <mxGeometry y="114" width="140" height="36" as="geometry" />
        </mxCell>
        <mxCell id="1xwBwhVuU44Af1zx4qzp-42" value="Транспортные рейсы" style="swimlane;fontStyle=0;childLayout=stackLayout;horizontal=1;startSize=26;fillColor=none;horizontalStack=0;resizeParent=1;resizeParentMax=0;resizeLast=0;collapsible=1;marginBottom=0;whiteSpace=wrap;html=1;" vertex="1" parent="1">
          <mxGeometry x="150" y="-150" width="140" height="171" as="geometry" />
        </mxCell>
        <mxCell id="1xwBwhVuU44Af1zx4qzp-43" value="ID INT" style="text;strokeColor=none;fillColor=none;align=left;verticalAlign=top;spacingLeft=4;spacingRight=4;overflow=hidden;rotatable=0;points=[[0,0.5],[1,0.5]];portConstraint=eastwest;whiteSpace=wrap;html=1;" vertex="1" parent="1xwBwhVuU44Af1zx4qzp-42">
          <mxGeometry y="26" width="140" height="26" as="geometry" />
        </mxCell>
        <mxCell id="1xwBwhVuU44Af1zx4qzp-44" value="ID_груза INT" style="text;strokeColor=none;fillColor=none;align=left;verticalAlign=top;spacingLeft=4;spacingRight=4;overflow=hidden;rotatable=0;points=[[0,0.5],[1,0.5]];portConstraint=eastwest;whiteSpace=wrap;html=1;" vertex="1" parent="1xwBwhVuU44Af1zx4qzp-42">
          <mxGeometry y="52" width="140" height="26" as="geometry" />
        </mxCell>
        <mxCell id="1xwBwhVuU44Af1zx4qzp-45" value="ID_назначения на транспорт INT" style="text;strokeColor=none;fillColor=none;align=left;verticalAlign=top;spacingLeft=4;spacingRight=4;overflow=hidden;rotatable=0;points=[[0,0.5],[1,0.5]];portConstraint=eastwest;whiteSpace=wrap;html=1;" vertex="1" parent="1xwBwhVuU44Af1zx4qzp-42">
          <mxGeometry y="78" width="140" height="41" as="geometry" />
        </mxCell>
        <mxCell id="1xwBwhVuU44Af1zx4qzp-46" value="ID_маршрута INT" style="text;strokeColor=none;fillColor=none;align=left;verticalAlign=top;spacingLeft=4;spacingRight=4;overflow=hidden;rotatable=0;points=[[0,0.5],[1,0.5]];portConstraint=eastwest;whiteSpace=wrap;html=1;" vertex="1" parent="1xwBwhVuU44Af1zx4qzp-42">
          <mxGeometry y="119" width="140" height="26" as="geometry" />
        </mxCell>
        <mxCell id="1xwBwhVuU44Af1zx4qzp-48" value="Статус BOOL" style="text;strokeColor=none;fillColor=none;align=left;verticalAlign=top;spacingLeft=4;spacingRight=4;overflow=hidden;rotatable=0;points=[[0,0.5],[1,0.5]];portConstraint=eastwest;whiteSpace=wrap;html=1;" vertex="1" parent="1xwBwhVuU44Af1zx4qzp-42">
          <mxGeometry y="145" width="140" height="26" as="geometry" />
        </mxCell>
        <mxCell id="1xwBwhVuU44Af1zx4qzp-52" style="edgeStyle=orthogonalEdgeStyle;rounded=0;orthogonalLoop=1;jettySize=auto;html=1;entryX=1;entryY=0.5;entryDx=0;entryDy=0;" edge="1" parent="1" source="1xwBwhVuU44Af1zx4qzp-15" target="1xwBwhVuU44Af1zx4qzp-8">
          <mxGeometry relative="1" as="geometry" />
        </mxCell>
        <mxCell id="1xwBwhVuU44Af1zx4qzp-53" style="edgeStyle=orthogonalEdgeStyle;rounded=0;orthogonalLoop=1;jettySize=auto;html=1;exitX=0;exitY=0.5;exitDx=0;exitDy=0;entryX=1;entryY=0.5;entryDx=0;entryDy=0;" edge="1" parent="1" source="1xwBwhVuU44Af1zx4qzp-19" target="1xwBwhVuU44Af1zx4qzp-7">
          <mxGeometry relative="1" as="geometry" />
        </mxCell>
        <mxCell id="1xwBwhVuU44Af1zx4qzp-54" style="edgeStyle=orthogonalEdgeStyle;rounded=0;orthogonalLoop=1;jettySize=auto;html=1;entryX=0;entryY=0.5;entryDx=0;entryDy=0;" edge="1" parent="1" source="1xwBwhVuU44Af1zx4qzp-2" target="1xwBwhVuU44Af1zx4qzp-44">
          <mxGeometry relative="1" as="geometry" />
        </mxCell>
        <mxCell id="1xwBwhVuU44Af1zx4qzp-55" style="edgeStyle=orthogonalEdgeStyle;rounded=0;orthogonalLoop=1;jettySize=auto;html=1;entryX=1;entryY=0.5;entryDx=0;entryDy=0;" edge="1" parent="1" source="1xwBwhVuU44Af1zx4qzp-10" target="1xwBwhVuU44Af1zx4qzp-46">
          <mxGeometry relative="1" as="geometry" />
        </mxCell>
        <mxCell id="1xwBwhVuU44Af1zx4qzp-57" style="edgeStyle=orthogonalEdgeStyle;rounded=0;orthogonalLoop=1;jettySize=auto;html=1;entryX=1;entryY=0.5;entryDx=0;entryDy=0;" edge="1" parent="1" source="1xwBwhVuU44Af1zx4qzp-34" target="1xwBwhVuU44Af1zx4qzp-56">
          <mxGeometry relative="1" as="geometry" />
        </mxCell>
        <mxCell id="1xwBwhVuU44Af1zx4qzp-58" style="edgeStyle=orthogonalEdgeStyle;rounded=0;orthogonalLoop=1;jettySize=auto;html=1;exitX=0;exitY=0.5;exitDx=0;exitDy=0;entryX=1;entryY=0.5;entryDx=0;entryDy=0;" edge="1" parent="1" source="1xwBwhVuU44Af1zx4qzp-6" target="1xwBwhVuU44Af1zx4qzp-45">
          <mxGeometry relative="1" as="geometry" />
        </mxCell>
        <mxCell id="1xwBwhVuU44Af1zx4qzp-71" style="edgeStyle=orthogonalEdgeStyle;rounded=0;orthogonalLoop=1;jettySize=auto;html=1;entryX=0;entryY=0.5;entryDx=0;entryDy=0;" edge="1" parent="1" source="1xwBwhVuU44Af1zx4qzp-61" target="1xwBwhVuU44Af1zx4qzp-29">
          <mxGeometry relative="1" as="geometry" />
        </mxCell>
        <mxCell id="1xwBwhVuU44Af1zx4qzp-61" value="Уровень риска" style="swimlane;fontStyle=0;childLayout=stackLayout;horizontal=1;startSize=26;fillColor=none;horizontalStack=0;resizeParent=1;resizeParentMax=0;resizeLast=0;collapsible=1;marginBottom=0;whiteSpace=wrap;html=1;" vertex="1" parent="1">
          <mxGeometry x="130" y="336" width="140" height="78" as="geometry" />
        </mxCell>
        <mxCell id="1xwBwhVuU44Af1zx4qzp-62" value="ID" style="text;strokeColor=none;fillColor=none;align=left;verticalAlign=top;spacingLeft=4;spacingRight=4;overflow=hidden;rotatable=0;points=[[0,0.5],[1,0.5]];portConstraint=eastwest;whiteSpace=wrap;html=1;" vertex="1" parent="1xwBwhVuU44Af1zx4qzp-61">
          <mxGeometry y="26" width="140" height="26" as="geometry" />
        </mxCell>
        <mxCell id="1xwBwhVuU44Af1zx4qzp-64" value="ID_груза" style="text;strokeColor=none;fillColor=none;align=left;verticalAlign=top;spacingLeft=4;spacingRight=4;overflow=hidden;rotatable=0;points=[[0,0.5],[1,0.5]];portConstraint=eastwest;whiteSpace=wrap;html=1;" vertex="1" parent="1xwBwhVuU44Af1zx4qzp-61">
          <mxGeometry y="52" width="140" height="26" as="geometry" />
        </mxCell>
        <mxCell id="1xwBwhVuU44Af1zx4qzp-67" style="edgeStyle=orthogonalEdgeStyle;rounded=0;orthogonalLoop=1;jettySize=auto;html=1;entryX=0;entryY=0.5;entryDx=0;entryDy=0;" edge="1" parent="1" source="1xwBwhVuU44Af1zx4qzp-2" target="1xwBwhVuU44Af1zx4qzp-64">
          <mxGeometry relative="1" as="geometry" />
        </mxCell>
      </root>
    </mxGraphModel>
  </diagram>
</mxfile>
